<svg class="d-none d-lg-block" width="98" height="38" viewBox="0 0 98 38" fill="none" xmlns="http://www.w3.org/2000/svg">
<path d="M23.364 35.8537H25.6707V25.161H23.364V35.8537ZM36.0854 28.4976C36.0854 25.9415 34.6796 25.1707 32.7887 25.1707H27.5121V35.8634H29.8187V31.6098L31.8482 31.8146L33.8381 35.8634H36.4418L34.1549 31.6585C34.8281 31.4634 36.0755 31.1415 36.0755 28.4976H36.0854ZM32.5709 30H29.8385V26.9854H32.5709C33.2936 26.9854 33.7589 27.2878 33.7589 28.5073C33.7589 29.7951 33.3629 30.0195 32.5709 30.0195V30ZM37.3427 27.0341H40.6097V35.8439H42.9164V27.0341H46.2626V25.1512H37.3526V27.0341H37.3427ZM54.5984 31.1707C54.5984 33.5415 53.8955 34.0293 52.3511 34.0293C50.6186 34.0293 50.0147 33.6 50.0147 31.1707V25.1512H47.708V31.1707C47.708 36.0293 50.1137 35.922 52.3511 35.922C54.3509 35.922 56.915 35.8927 56.915 31.1707V25.1512H54.5885V31.1707H54.5984ZM64.0034 29.5219H62.0927C61.172 29.5219 60.8057 29.3463 60.8057 28.4976V27.9707C60.8057 26.9756 61.3799 26.9171 62.3897 26.9366C62.9837 26.9366 65.3696 26.9951 66.4289 27.0829V25.4732C64.8944 25.161 63.3302 25.0146 61.766 25.0537C59.9246 25.0829 58.499 25.6976 58.499 27.8146V28.7317C58.499 29.6683 58.697 31.561 61.6175 31.561H63.4589C64.3499 31.561 64.5479 31.9512 64.5479 32.5659V33.1317C64.5479 33.9512 63.7559 34.0488 63.0629 34.0488C61.5284 34.0488 59.5187 33.9415 58.8554 33.8829V35.4927C60.1028 35.8146 61.4591 35.9317 63.5183 35.9317C65.1518 35.9317 66.8447 35.4829 66.8447 33.0537V32.3415C66.8645 31.161 66.3794 29.5122 64.0133 29.5122H64.0034V29.5219ZM70.9928 33.2195V25.1707H68.6861V33.7854C68.6861 35.4341 69.8939 35.8634 71.1908 35.8634H76.1507V33.9805H72.0125C71.5472 33.9805 71.0027 34.0098 71.0027 33.2293H70.9928V33.2195ZM81.4967 25.161L77.4278 35.8537H79.9027L80.7739 33.4927H84.724L85.5655 35.8537H88.0207L84.0904 25.161H81.4967ZM81.3778 31.678L82.8331 27.8537L84.1795 31.678H81.3778ZM96.1585 30.3024C97.3267 30.1171 97.8019 29.0049 97.8019 28.0195C97.8019 26.4683 96.8911 25.161 94.4062 25.161H89.4265V35.8537H94.4359C96.9604 35.8537 97.9999 34.7024 97.9999 32.7122C98.0098 31.3463 97.1683 30.4683 96.1684 30.3024H96.1585ZM91.7431 26.9659H94.2676C94.8616 26.9659 95.5348 27.1805 95.5348 28.1756C95.5348 28.9366 95.1091 29.3854 94.2676 29.3854H91.7431V26.9659ZM94.3567 34.0293H91.7431V31.1122H94.3567C95.3269 31.1122 95.6932 31.8244 95.6932 32.6146C95.7031 33.7463 95.0596 34.039 94.3666 34.039H94.3567V34.0293ZM41.5898 14.4488C41.6888 14.4488 41.7878 14.4293 41.8868 14.3902C41.9759 14.3512 42.065 14.2927 42.1343 14.2244L48.698 7.8439C48.8069 7.73659 48.8861 7.6 48.9158 7.45366C48.9455 7.30732 48.9257 7.15122 48.8663 7.01463C48.8069 6.87805 48.7079 6.76098 48.5792 6.68293C48.4505 6.60488 48.302 6.5561 48.1535 6.5561H45.2132C45.0449 6.5561 44.8865 6.61463 44.7578 6.70244L40.3919 9.89268L35.1746 0.35122L35.1548 0.321951C35.1548 0.321951 35.1251 0.282927 35.1152 0.263415L35.0954 0.243902C35.0954 0.243902 35.0657 0.204878 35.0459 0.195122L35.0162 0.165854L34.9667 0.126829L34.937 0.097561L34.8776 0.0682927L34.838 0.0487805L34.7786 0.0195122H34.739C34.739 0.0195122 34.6994 0.0097561 34.6697 0C34.6598 0 34.64 0 34.6301 0C34.6103 0 34.5806 0 34.5608 0H34.4717C34.4123 0 34.3529 0 34.3034 0.0292683L22.8888 2.96585C22.77 2.99512 22.6611 3.05366 22.572 3.13171C22.4829 3.20976 22.4136 3.30732 22.3641 3.41463L11.1078 31.7756L7.53389 23.2195C7.48439 23.0927 7.39529 22.9854 7.28639 22.9073C7.17749 22.8293 7.04879 22.7707 6.92009 22.761L0.861298 21.9902C0.722699 21.9707 0.574199 21.9902 0.445499 22.0488C0.316799 22.1073 0.2079 22.2049 0.1287 22.3219C0.0494999 22.439 0.00989998 22.5756 0 22.722C0 22.8585 0.0395999 23.0049 0.1089 23.122L9.08818 37.6585C9.08818 37.6585 9.08818 37.6683 9.08818 37.678V37.6976L9.10798 37.7171C9.10798 37.7171 9.12778 37.7463 9.13768 37.7561L9.16738 37.7951L9.19708 37.8244L9.23668 37.8537C9.23668 37.8537 9.25648 37.8732 9.26638 37.8829L9.31588 37.9122L9.34558 37.9317L9.39508 37.9512L9.43468 37.9707L9.49408 37.9902H9.59308L9.62278 38H12.5433C12.6819 38 12.8106 37.9707 12.9294 37.9024C13.0482 37.8341 13.1472 37.7463 13.2066 37.6293L30.1553 9.4439L36.6497 13.8829H36.6695L36.7289 13.9122L36.7784 13.9317L36.8378 13.9512L36.8873 13.9707H37.016L41.5304 14.4098L41.5997 14.439L41.5898 14.4488ZM9.60298 35.561L2.2473 23.6683L6.27659 24.1854L10.296 33.8049L9.59308 35.561H9.60298ZM29.2445 7.97073L12.1275 36.5073H10.8702L10.9791 36.2341L11.8404 34.0585L23.6511 4.30244L32.8679 1.89268L29.2445 7.97073ZM37.0655 12.3415L30.9275 8.13659L34.4618 2.2439L39.1643 10.8098L37.7585 11.8341L37.0655 12.3317V12.3415ZM39.1247 12.7122L45.4706 8.07805H46.2923L41.3027 12.9366L39.1247 12.722V12.7122Z" fill="#1ABC60"></path>
</svg>
