<svg width="106" height="32" viewBox="0 0 106 32" fill="none" xmlns="http://www.w3.org/2000/svg">
<path d="M2 0H6C7.10457 0 8 0.89543 8 2V6C8 7.10457 7.10457 8 6 8H2C0.89543 8 0 7.10457 0 6V2C0 0.89543 0.89543 0 2 0ZM14 24H18C19.1046 24 20 24.8954 20 26V30C20 31.1046 19.1046 32 18 32H14C12.8954 32 12 31.1046 12 30V26C12 24.8954 12.8954 24 14 24ZM20 8V18C20 19.1046 19.1046 20 18 20H14C12.8954 20 12 19.1046 12 18V2C12 0.89543 12.8954 0 14 0H30C31.1046 0 32 0.89543 32 2V6C32 7.10457 31.1046 8 30 8H20Z" fill="white"/>
<g opacity="0.6">
<rect x="44" width="62" height="32" rx="6" fill="url(#paint0_linear_1549_20594)"/>
</g>
<path d="M59.6951 21.7735H55V9H59.5729C60.8296 9 61.935 9.27301 62.8892 9.81903C63.855 10.3534 64.6055 11.1028 65.1407 12.067C65.676 13.0313 65.9436 14.1466 65.9436 15.4129C65.9436 16.6559 65.6818 17.7596 65.1582 18.7239C64.6346 19.6765 63.9015 20.4258 62.959 20.9719C62.0281 21.5063 60.9402 21.7735 59.6951 21.7735ZM57.3737 10.0804V20.7105L56.2567 19.5777H59.4857C60.3118 19.5777 61.0158 19.4093 61.5976 19.0724C62.191 18.7355 62.6448 18.2592 62.959 17.6434C63.2848 17.0161 63.4477 16.2726 63.4477 15.4129C63.4477 14.5299 63.279 13.7748 62.9415 13.1475C62.6157 12.5201 62.1503 12.038 61.5452 11.7011C60.9402 11.3642 60.2071 11.1957 59.346 11.1957H56.2567L57.3737 10.0804Z" fill="white"/>
<path d="M67.3788 17.4343C67.3788 16.5398 67.5766 15.7498 67.9723 15.0643C68.3795 14.3789 68.9322 13.8445 69.6304 13.4611C70.3402 13.0777 71.1431 12.8861 72.039 12.8861C72.9466 12.8861 73.7495 13.0777 74.4477 13.4611C75.1458 13.8445 75.6927 14.3789 76.0883 15.0643C76.4956 15.7498 76.6992 16.5398 76.6992 17.4343C76.6992 18.3405 76.4956 19.1363 76.0883 19.8217C75.6927 20.4955 75.1458 21.0241 74.4477 21.4075C73.7495 21.7909 72.9466 21.9826 72.039 21.9826C71.1431 21.9826 70.3402 21.7909 69.6304 21.4075C68.9322 21.0241 68.3795 20.4955 67.9723 19.8217C67.5766 19.1363 67.3788 18.3405 67.3788 17.4343ZM69.6653 17.4343C69.6653 17.9339 69.7642 18.3753 69.962 18.7587C70.1714 19.1305 70.4507 19.4267 70.7998 19.6475C71.1605 19.8566 71.5736 19.9611 72.039 19.9611C72.5161 19.9611 72.9292 19.8566 73.2782 19.6475C73.639 19.4267 73.9182 19.1305 74.116 18.7587C74.3138 18.3753 74.4128 17.9339 74.4128 17.4343C74.4128 16.9231 74.3138 16.4817 74.116 16.1099C73.9182 15.7382 73.639 15.4477 73.2782 15.2386C72.9292 15.0295 72.5161 14.9249 72.039 14.9249C71.5736 14.9249 71.1605 15.0295 70.7998 15.2386C70.4507 15.4477 70.1714 15.7382 69.962 16.1099C69.7642 16.4817 69.6653 16.9231 69.6653 17.4343Z" fill="white"/>
<path d="M78.0383 17.4343C78.0383 16.5398 78.2245 15.7556 78.5968 15.0818C78.9692 14.3963 79.4812 13.8561 80.1328 13.4611C80.7844 13.0661 81.5407 12.8686 82.4018 12.8686C83.6003 12.8686 84.5835 13.1823 85.3515 13.8097C86.1195 14.437 86.5558 15.2793 86.6605 16.3365H84.3741C84.2577 15.8601 84.0366 15.5058 83.7108 15.2735C83.385 15.0295 82.9719 14.9075 82.4716 14.9075C82.0527 14.9075 81.6745 15.0121 81.3371 15.2212C81.0113 15.4187 80.7553 15.7091 80.5691 16.0925C80.3946 16.4643 80.3073 16.9115 80.3073 17.4343C80.3073 17.9571 80.3946 18.4102 80.5691 18.7936C80.7437 19.1653 80.988 19.4558 81.3022 19.6649C81.6163 19.8624 81.9887 19.9611 82.4192 19.9611C82.9428 19.9611 83.3734 19.8391 83.7108 19.5952C84.0483 19.3512 84.2693 19.0027 84.3741 18.5496H86.6605C86.5791 19.2234 86.3464 19.8217 85.9624 20.3445C85.59 20.8557 85.0955 21.2623 84.4788 21.5643C83.8737 21.8548 83.1872 22 82.4192 22C81.5349 22 80.7611 21.8083 80.0979 21.4249C79.4462 21.0416 78.9401 20.513 78.5794 19.8391C78.2187 19.1537 78.0383 18.3521 78.0383 17.4343Z" fill="white"/>
<path d="M87.7566 19.1247H89.9209C89.9325 19.4848 90.0664 19.7694 90.3223 19.9786C90.5783 20.1761 90.9391 20.2748 91.4045 20.2748C91.8816 20.2748 92.2423 20.1877 92.4866 20.0134C92.7426 19.8391 92.8706 19.6126 92.8706 19.3338C92.8706 19.1363 92.8066 18.962 92.6786 18.811C92.5506 18.66 92.3005 18.5438 91.9281 18.4625L90.3573 18.0965C89.5776 17.9223 88.9958 17.6434 88.6119 17.2601C88.2279 16.8651 88.0359 16.3132 88.0359 15.6046C88.0359 15.0353 88.1871 14.5474 88.4897 14.1408C88.7922 13.7341 89.1995 13.4205 89.7115 13.1997C90.2351 12.979 90.8343 12.8686 91.5092 12.8686C92.1608 12.8686 92.731 12.9906 93.2197 13.2346C93.72 13.4669 94.1098 13.7922 94.3891 14.2105C94.6684 14.6287 94.808 15.1282 94.808 15.7091H92.6612C92.6612 15.349 92.5506 15.0702 92.3295 14.8727C92.1085 14.6635 91.8001 14.559 91.4045 14.559C91.0205 14.559 90.718 14.6461 90.4969 14.8204C90.2758 14.9946 90.1653 15.227 90.1653 15.5174C90.1653 15.9705 90.526 16.2784 91.2474 16.441L92.8183 16.7895C93.5397 16.9522 94.0808 17.2194 94.4415 17.5912C94.8138 17.9513 95 18.4683 95 19.1421C95 19.723 94.8429 20.2283 94.5287 20.6582C94.2262 21.088 93.7957 21.4191 93.2372 21.6515C92.6903 21.8838 92.0561 22 91.3347 22C90.2409 22 89.3682 21.7386 88.7166 21.2158C88.0766 20.6814 87.7566 19.9844 87.7566 19.1247Z" fill="white"/>
<defs>
<linearGradient id="paint0_linear_1549_20594" x1="44" y1="0" x2="70.0838" y2="50.5374" gradientUnits="userSpaceOnUse">
<stop stop-color="#79CCF6"/>
<stop offset="0.5" stop-color="#8293ED"/>
<stop offset="1" stop-color="#F3995E"/>
</linearGradient>
</defs>
</svg>
