<svg xmlns="http://www.w3.org/2000/svg" width="48" height="48" fill="none"><path fill="#EAEDF0" d="M0 12C0 5.373 5.373 0 12 0h24c6.627 0 12 5.373 12 12v24c0 6.627-5.373 12-12 12H12C5.373 48 0 42.627 0 36V12Z"/><path fill="#272E35" d="M15.25 14h2.5c.69 0 1.25.56 1.25 1.25v2.5c0 .69-.56 1.25-1.25 1.25h-2.5c-.69 0-1.25-.56-1.25-1.25v-2.5c0-.69.56-1.25 1.25-1.25Zm7.5 15h2.5c.69 0 1.25.56 1.25 1.25v2.5c0 .69-.56 1.25-1.25 1.25h-2.5c-.69 0-1.25-.56-1.25-1.25v-2.5c0-.69.56-1.25 1.25-1.25Zm3.75-10v6.25c0 .69-.56 1.25-1.25 1.25h-2.5c-.69 0-1.25-.56-1.25-1.25v-10c0-.69.56-1.25 1.25-1.25h10c.69 0 1.25.56 1.25 1.25v2.5c0 .69-.56 1.25-1.25 1.25H26.5Z"/></svg>
